<svg id="Outline" height="512" viewBox="0 0 512 512" width="512" xmlns="http://www.w3.org/2000/svg"><path d="m467.438 198.84c-8.284-1.263-11.836-2.166-13.644-6.076-1.84-3.979-.238-7.372 4.143-14.73 4.422-7.429 10.48-17.6 4.918-29.631-3.991-8.631-12.83-15.782-24.888-20.135-20.494-7.4-45.787-5.186-69.394 6.069a181.214 181.214 0 0 0 -27.023 15.748 151.153 151.153 0 0 0 2.758-29.6c0-21.922-6.078-42.485-17.108-57.885-10.138-14.153-23.41-22.6-35.508-22.6-13.241 0-19.768 9.942-24.534 17.2-4.657 7.093-6.97 9.982-11.158 9.982s-6.5-2.889-11.159-9.982c-4.765-7.258-11.293-17.2-24.533-17.2-12.1 0-25.371 8.447-35.5 22.6-11.038 15.4-17.116 35.963-17.116 57.888a151.069 151.069 0 0 0 2.759 29.6 181.279 181.279 0 0 0 -27.024-15.748c-23.606-11.255-48.9-13.467-69.392-6.069-12.06 4.353-20.9 11.5-24.89 20.135-5.562 12.03.495 22.2 4.918 29.631 4.382 7.359 5.983 10.751 4.144 14.73-1.808 3.91-5.361 4.813-13.645 6.076-8.507 1.3-20.159 3.074-25.755 15.179-5.1 11.034-3.209 26.738 5.066 42.008 9.053 16.707 24.824 31.051 44.407 40.387a106.152 106.152 0 0 0 45.5 10.365 145.321 145.321 0 0 0 -20.029 26.51c-11.229 18.732-16.567 39.5-15.031 58.475 1.407 17.383 8.39 31.558 18.681 37.919 11.32 7 22.019 1.934 29.83-1.761 7.569-3.581 11.006-4.82 14.577-2.614 3.627 2.242 4.156 6.156 4.5 14.552.353 8.68.836 20.567 12.072 27.513 7.932 4.9 19.04 5.963 31.278 2.986 21.29-5.177 41.343-21.23 55.017-44.041a153.974 153.974 0 0 0 11.325-22.803 153.875 153.875 0 0 0 11.326 22.8c13.674 22.811 33.727 38.864 55.017 44.041a55.462 55.462 0 0 0 13.082 1.656c6.979 0 13.215-1.564 18.2-4.642 11.237-6.946 11.72-18.833 12.072-27.513.341-8.4.869-12.31 4.5-14.552 3.573-2.2 7.006-.967 14.577 2.614 7.811 3.695 18.507 8.757 29.831 1.761 10.29-6.361 17.273-20.536 18.68-37.919 1.536-18.975-3.8-39.742-15.031-58.475a145.412 145.412 0 0 0 -20.028-26.51 106.182 106.182 0 0 0 45.5-10.365c19.582-9.336 35.352-23.68 44.406-40.387 8.274-15.27 10.169-30.974 5.067-42.008-5.599-12.105-17.254-13.882-25.761-15.179zm-30.6 83.132c-28.12 13.406-54.707 8.174-65.518 5.029a36.667 36.667 0 0 0 -5.733-2.122 7.991 7.991 0 0 0 -1.918-.233h-.588a8 8 0 0 0 -3.159 15.354 63.741 63.741 0 0 0 6.015 2.127c7.33 3.554 23.166 13.665 38.587 39.39 21.39 35.685 12.318 67.971 1.662 74.557-3.571 2.207-7.006.968-14.577-2.614-7.812-3.7-18.509-8.755-29.831-1.76-11.237 6.946-11.719 18.833-12.072 27.512-.341 8.4-.869 12.31-4.5 14.552-4.138 2.558-11.273 2.95-19.085 1.051-8.117-1.975-28.76-9.5-45.075-36.722-20.926-34.911-16.344-57.48-16.314-57.624a8 8 0 0 0 -7.779-9.864h-1.912a7.948 7.948 0 0 0 -7.8 9.784c.049.224 4.631 22.793-16.3 57.7-16.314 27.217-36.956 34.747-45.074 36.722-7.811 1.9-14.946 1.507-19.084-1.051-3.628-2.242-4.157-6.156-4.5-14.552-.353-8.679-.836-20.566-12.072-27.512-11.322-7-22.019-1.935-29.831 1.76-7.568 3.582-11.005 4.822-14.576 2.614-10.656-6.586-19.729-38.872 1.662-74.556 15.44-25.759 31.362-35.877 38.666-39.416 3.491-1.075 5.582-1.951 5.935-2.1a8 8 0 0 0 -3.155-15.352h-.588a8 8 0 0 0 -1.918.233 37.048 37.048 0 0 0 -5.9 2.2c-10.877 3.182-37.2 8.316-65.348-5.106-37.184-17.733-47.138-49.756-41.829-61.24 1.808-3.91 5.361-4.813 13.645-6.076 8.507-1.3 20.159-3.074 25.755-15.178 5.563-12.03-.5-22.2-4.918-29.631-4.382-7.358-5.983-10.751-4.144-14.73 2.12-4.583 8.026-9 15.8-11.8 7.805-2.818 28.993-7.925 57.075 5.463 23.5 11.205 38.416 24.532 45.759 33.235a44.215 44.215 0 0 0 5.537 7.513 8 8 0 0 0 12.651-9.575 57.715 57.715 0 0 0 -5.264-7.309c-5.3-9.145-11.533-26.611-11.533-52.156 0-41.727 24.188-64.489 36.616-64.489 4.189 0 6.5 2.889 11.158 9.982 4.766 7.259 11.293 17.2 24.534 17.2s19.768-9.942 24.533-17.2c4.657-7.093 6.967-9.982 11.159-9.982 12.428 0 36.616 22.762 36.616 64.488 0 25.545-6.232 43.011-11.533 52.156a57.638 57.638 0 0 0 -5.263 7.309 8 8 0 0 0 12.65 9.575 44.189 44.189 0 0 0 5.523-7.489c7.354-8.724 22.267-22.052 45.774-33.259 28.08-13.388 49.27-8.28 57.075-5.463 7.774 2.807 13.679 7.218 15.8 11.8 1.84 3.979.238 7.372-4.143 14.73-4.422 7.428-10.48 17.6-4.918 29.63 5.6 12.1 17.248 13.882 25.755 15.179 8.284 1.263 11.837 2.166 13.645 6.076 5.307 11.484-4.648 43.508-41.839 61.24z"/><path d="m352 208a24.039 24.039 0 0 0 -23.026 17.247l-31.674 6.334a48.278 48.278 0 0 0 -5.759-7.809l10.115-10.115a8 8 0 0 0 -11.314-11.314l-11.466 11.467a47.659 47.659 0 0 0 -14.876-5.131v-26.055a24 24 0 1 0 -16 0v26.055a47.635 47.635 0 0 0 -14.876 5.132l-11.467-11.468a8 8 0 0 0 -11.314 11.314l10.116 10.115a48.284 48.284 0 0 0 -5.76 7.809l-31.673-6.334a24 24 0 1 0 -.935 16.13l26.814 5.363a48.062 48.062 0 0 0 -.905 9.26c0 .743.023 1.48.056 2.215l-18.586 6.2a8 8 0 1 0 5.06 15.178l16.96-5.653a47.942 47.942 0 0 0 5.409 9.852l-22.556 22.555.006.006a24.008 24.008 0 1 0 11.3 11.3l.006.006 22.557-22.559a47.743 47.743 0 0 0 19.788 8.221v16.679a8 8 0 0 0 16 0v-16.679a47.741 47.741 0 0 0 19.788-8.219l22.555 22.555.007-.007a24.009 24.009 0 1 0 11.3-11.3v-.006l-22.55-22.556a47.986 47.986 0 0 0 5.408-9.852l16.96 5.653a8 8 0 1 0 5.06-15.178l-18.586-6.2c.033-.735.056-1.472.056-2.215a48.062 48.062 0 0 0 -.9-9.26l26.814-5.363a24 24 0 1 0 22.088-33.373zm-192 32a8 8 0 1 1 8-8 8.009 8.009 0 0 1 -8 8zm24 96a8 8 0 1 1 8-8 8.009 8.009 0 0 1 -8 8zm72-184a8 8 0 1 1 -8 8 8.009 8.009 0 0 1 8-8zm0 136a32 32 0 1 1 32-32 32.036 32.036 0 0 1 -32 32zm72 32a8 8 0 1 1 -8 8 8.009 8.009 0 0 1 8-8zm24-80a8 8 0 1 1 8-8 8.009 8.009 0 0 1 -8 8z"/></svg>